# xmcd
#
# Track frame offsets:
#	150
#	13972
#	28299
#	36333
#	47462
#	63865
#	75562
#
# Disc length: 1178 seconds
#
# Revision: 1
# Processed by: cddbd v1.5.2PL0 Copyright (c) Steve Scherf et al.
# Submitted via: audiograbber 1.83.01
#
DISCID=53049807
DTITLE=Alexandre Jous - Cor des Alpes
DYEAR=2013
DGENRE=Folk
TTITLE0=Du Semnoz à la Tournette
TTITLE1=C'est la montagne qui décide
TTITLE2=La valse du moulin
TTITLE3=Un soir à Chantagrillet
TTITLE4=Le berger transhumant
TTITLE5=Les chasseurs de Mormal
TTITLE6=Ludwig von alphorn
EXTD=
EXTT0=
EXTT1=
EXTT2=
EXTT3=
EXTT4=
EXTT5=
EXTT6=
PLAYORDER=
